<svg width="26" height="25" viewBox="0 0 26 25" fill="none" xmlns="http://www.w3.org/2000/svg">
  <path d="M12.6289 3.125C7.45911 3.125 3.25391 7.33125 3.25391 12.5H5.33724C5.33724 8.47917 8.60911 5.20833 12.6289 5.20833C14.905 5.20833 16.926 6.2675 18.2625 7.90812L15.7539 10.4167H22.0039V4.16667L19.7476 6.42293C18.0298 4.40799 15.4794 3.125 12.6289 3.125ZM19.9206 12.5C19.9206 16.5198 16.6487 19.7917 12.6289 19.7917C10.3528 19.7917 8.33181 18.7325 6.99536 17.0919L9.50391 14.5833H3.25391V20.8333L5.51017 18.5771C7.22803 20.592 9.77843 21.875 12.6289 21.875C17.7987 21.875 22.0039 17.6698 22.0039 12.5H19.9206Z" fill="white"/>
</svg>
