<svg width="16" height="17" viewBox="0 0 16 17" fill="none" xmlns="http://www.w3.org/2000/svg">
  <path d="M7.27478 0.5C3.33339 0.5 0 3.83339 0 7.77478C0 11.8456 3.19965 15.0439 7.27194 15.0439C8.72633 15.0439 10.1819 14.6064 11.3454 13.8792L13.5412 16.0779C14.104 16.6407 15.015 16.6407 15.5779 16.0779C16.1407 15.515 16.1407 14.604 15.5779 14.0412L13.3792 11.8454C14.1064 10.6819 14.5439 9.22633 14.5439 7.77194C14.5439 3.69965 11.3456 0.5 7.27478 0.5ZM7.27194 3.40878C9.7444 3.40878 11.6351 5.29948 11.6351 7.77194C11.6351 10.2444 9.7444 12.1351 7.27194 12.1351C4.79948 12.1351 2.90878 10.2444 2.90878 7.77194C2.90878 5.29948 4.79948 3.40878 7.27194 3.40878Z" fill="#492071"/>
  <path d="M8.26858 9.24831C8.26858 8.39682 8.95885 7.70655 9.81034 7.70655C10.6618 7.70655 11.3521 8.39682 11.3521 9.24831V14.7866C11.3521 15.6381 10.6618 16.3284 9.81034 16.3284C8.95885 16.3284 8.26858 15.6381 8.26858 14.7866V9.24831Z" fill="white"/>
  <path d="M7.15353 12.0251H8.26858V12.2148H7.15353V12.0251Z" fill="white"/>
  <path d="M6.94164 15.0473C6.13758 15.0473 5.48576 14.3955 5.48576 13.5915C5.48576 12.7874 6.13758 12.1356 6.94164 12.1356H7.90058C8.70464 12.1356 9.35646 12.7874 9.35646 13.5915C9.35646 14.3955 8.70464 15.0473 7.90058 15.0473H6.94164Z" fill="#492071"/>
  <path d="M11.3498 9.3865C11.5331 8.81569 12.8849 9.3865 12.8849 9.3865V13.8776C12.8849 13.8776 13.0575 15.5748 11.3498 13.8776C9.82825 12.3655 11.0653 10.2723 11.3498 9.3865Z" fill="#492071"/>
</svg>
