<svg width="26" height="25" viewBox="0 0 26 25" fill="none" xmlns="http://www.w3.org/2000/svg">
  <path d="M10.7947 2.08325L10.284 4.71183C9.42551 5.0356 8.63715 5.48943 7.94637 6.05664L5.42155 5.18587L2.98828 9.3973L5.01058 11.1551C4.93284 11.6324 4.89258 12.0748 4.89258 12.4999C4.89258 12.9257 4.93404 13.3672 5.01058 13.8447V13.8468L2.98828 15.6046L5.42155 19.814L7.94434 18.9452C8.63518 19.5128 9.42532 19.9641 10.284 20.288L10.7947 22.9166H15.6571L16.1678 20.288C17.0269 19.964 17.8144 19.5109 18.5055 18.9432L21.0303 19.814L23.4615 15.6046L21.4412 13.8447C21.519 13.3674 21.5592 12.9251 21.5592 12.4999C21.5592 12.0754 21.5188 11.6336 21.4412 11.1571V11.1551L23.4635 9.39526L21.0303 5.18587L18.5075 6.05461C17.8166 5.48709 17.0265 5.03579 16.1678 4.71183L15.6571 2.08325H10.7947ZM12.5118 4.16659H13.94L14.3449 6.24992L15.4313 6.66089C16.0862 6.9077 16.6745 7.24654 17.1851 7.66593L18.0843 8.40242L20.0863 7.71476L20.8004 8.94971L19.2013 10.3413L19.3844 11.4867V11.4888C19.4481 11.8793 19.4759 12.207 19.4759 12.4999C19.4759 12.7929 19.4481 13.1205 19.3844 13.5111L19.1992 14.6565L20.7983 16.0481L20.0842 17.2851L18.0843 16.5954L17.183 17.3339C16.6725 17.7533 16.0862 18.0921 15.4313 18.3389H15.4293L14.3429 18.7499L13.938 20.8333H12.5118L12.1069 18.7499L11.0205 18.3389C10.3656 18.0921 9.7773 17.7533 9.26676 17.3339L8.36751 16.5974L6.36556 17.2851L5.65145 16.0501L7.2526 14.6565L7.06746 13.5151V13.5131C7.00468 13.1208 6.97591 12.7923 6.97591 12.4999C6.97591 12.207 7.00377 11.8794 7.06746 11.4888L7.2526 10.3433L5.65145 8.95174L6.36556 7.71476L8.36751 8.40446L9.26676 7.66593C9.7773 7.24654 10.3656 6.9077 11.0205 6.66089L12.1069 6.24992L12.5118 4.16659ZM13.2259 8.33325C10.9379 8.33325 9.05925 10.2119 9.05925 12.4999C9.05925 14.788 10.9379 16.6666 13.2259 16.6666C15.514 16.6666 17.3926 14.788 17.3926 12.4999C17.3926 10.2119 15.514 8.33325 13.2259 8.33325ZM13.2259 10.4166C14.3837 10.4166 15.3092 11.3421 15.3092 12.4999C15.3092 13.6577 14.3837 14.5833 13.2259 14.5833C12.0681 14.5833 11.1426 13.6577 11.1426 12.4999C11.1426 11.3421 12.0681 10.4166 13.2259 10.4166Z" fill="white"/>
</svg>
