<svg width="100" height="100" viewBox="0 0 100 100" fill="none" xmlns="http://www.w3.org/2000/svg">
  <path d="M49.9987 8.33334C26.9862 8.33334 8.33203 26.9875 8.33203 50C8.33203 73.0125 26.9862 91.6667 49.9987 91.6667C73.0112 91.6667 91.6654 73.0125 91.6654 50C91.6654 26.9875 73.0112 8.33334 49.9987 8.33334ZM49.9987 16.6667C68.407 16.6667 83.332 31.5917 83.332 50C83.332 68.4083 68.407 83.3333 49.9987 83.3333C31.5904 83.3333 16.6654 68.4083 16.6654 50C16.6654 31.5917 31.5904 16.6667 49.9987 16.6667ZM29.1654 33.3333C26.8654 33.3333 24.9987 35.1446 24.9987 37.3779C24.9987 41.0113 30.0728 45.4604 31.9811 47.1354L32.6159 47.7051C33.4951 48.5009 34.532 49.325 35.4154 50C36.2987 49.325 37.3398 48.4968 38.2148 47.7051L38.8496 47.1354C40.7579 45.4604 45.832 41.0113 45.832 37.3779C45.832 35.1446 43.9654 33.3333 41.6654 33.3333C37.6862 33.3333 35.3828 35.5062 35.3828 35.5062C35.3661 35.4895 32.8279 33.3333 29.1654 33.3333ZM58.332 33.3333C56.032 33.3333 54.1654 35.1446 54.1654 37.3779C54.1654 41.0113 59.2395 45.4604 61.1478 47.1354L61.7826 47.7051C62.6617 48.5009 63.6987 49.325 64.582 50C65.4695 49.325 66.5065 48.4968 67.3815 47.7051L68.0163 47.1354C69.9246 45.4604 74.9987 41.0113 74.9987 37.3779C74.9987 35.1446 73.132 33.3333 70.832 33.3333C66.8529 33.3333 64.5495 35.5062 64.5495 35.5062C64.5328 35.4895 61.9945 33.3333 58.332 33.3333ZM28.7096 58.3333C32.043 66.8333 40.2904 72.9167 49.9987 72.9167C59.707 72.9167 67.9544 66.8333 71.2878 58.3333H28.7096Z" fill="#4073B5"/>
</svg>
