<svg width="100" height="100" viewBox="0 0 100 100" fill="none" xmlns="http://www.w3.org/2000/svg">
  <path d="M49.9987 8.33334C26.9862 8.33334 8.33203 26.9875 8.33203 50C8.33203 73.0125 26.9862 91.6667 49.9987 91.6667C73.0112 91.6667 91.6654 73.0125 91.6654 50C91.6654 26.9875 73.0112 8.33334 49.9987 8.33334ZM49.9987 16.6667C68.407 16.6667 83.332 31.5917 83.332 50C83.332 68.4083 68.407 83.3333 49.9987 83.3333C31.5904 83.3333 16.6654 68.4083 16.6654 50C16.6654 31.5917 31.5904 16.6667 49.9987 16.6667ZM35.4154 33.3333C31.9654 33.3333 29.1654 36.1333 29.1654 39.5833V41.6667H41.6654V39.5833C41.6654 36.1333 38.8654 33.3333 35.4154 33.3333ZM64.582 33.3333C61.132 33.3333 58.332 36.1333 58.332 39.5833V41.6667H70.832V39.5833C70.832 36.1333 68.032 33.3333 64.582 33.3333ZM28.7096 50C32.043 63.3583 40.2904 72.9167 49.9987 72.9167C59.707 72.9167 67.9544 63.3583 71.2878 50H28.7096Z" fill="#4D97CF"/>
</svg>
