<svg width="100" height="100" viewBox="0 0 100 100" fill="none" xmlns="http://www.w3.org/2000/svg">
  <path d="M49.9987 8.33334C27.0362 8.33334 8.33203 27.0375 8.33203 50C8.33203 72.9625 27.0362 91.6667 49.9987 91.6667C72.9612 91.6667 91.6654 72.9625 91.6654 50C91.6654 27.0375 72.9612 8.33334 49.9987 8.33334ZM49.9987 16.6667C68.4575 16.6667 83.332 31.5412 83.332 50C83.332 68.4589 68.4575 83.3333 49.9987 83.3333C31.5399 83.3333 16.6654 68.4589 16.6654 50C16.6654 31.5412 31.5399 16.6667 49.9987 16.6667ZM37.4987 41.6667C36.3936 41.6667 35.3338 42.1057 34.5524 42.8871C33.771 43.6685 33.332 44.7283 33.332 45.8333C33.332 46.9384 33.771 47.9982 34.5524 48.7796C35.3338 49.561 36.3936 50 37.4987 50C38.6038 50 39.6636 49.561 40.445 48.7796C41.2264 47.9982 41.6654 46.9384 41.6654 45.8333C41.6654 44.7283 41.2264 43.6685 40.445 42.8871C39.6636 42.1057 38.6038 41.6667 37.4987 41.6667ZM62.4987 41.6667C61.3936 41.6667 60.3338 42.1057 59.5524 42.8871C58.771 43.6685 58.332 44.7283 58.332 45.8333C58.332 46.9384 58.771 47.9982 59.5524 48.7796C60.3338 49.561 61.3936 50 62.4987 50C63.6038 50 64.6636 49.561 65.445 48.7796C66.2264 47.9982 66.6654 46.9384 66.6654 45.8333C66.6654 44.7283 66.2264 43.6685 65.445 42.8871C64.6636 42.1057 63.6038 41.6667 62.4987 41.6667ZM37.4987 62.5V70.8333H62.4987V62.5H37.4987Z" fill="#4E8E4B"/>
</svg>
