<svg width="100" height="100" viewBox="0 0 100 100" fill="none" xmlns="http://www.w3.org/2000/svg">
  <path d="M49.9603 8.30893C37.1005 8.30893 25.7261 14.8407 18.9788 24.7559C15.2774 23.9075 12.5091 20.5977 12.5091 16.6423H4.17578C4.17578 23.8025 8.73073 29.8718 15.0807 32.2266C13.4401 36.4336 12.5091 40.9907 12.5091 45.7682V62.4756C12.5091 78.5353 25.6161 91.6423 41.6758 91.6423H58.3424C74.4022 91.6423 87.5091 78.5353 87.5091 62.4756V45.7682C87.5091 40.9904 86.5709 36.4339 84.9294 32.2266C91.2794 29.8718 95.8424 23.8025 95.8424 16.6423H87.5091C87.5091 20.5977 84.7327 23.9075 81.0312 24.7559C74.2816 14.8407 62.9095 8.30893 50.0498 8.30893H49.9603ZM49.9603 16.6423H50.0498C66.1857 16.6423 79.1758 29.6323 79.1758 45.7682V62.4756C79.1758 74.0325 69.8994 83.3089 58.3424 83.3089H41.6758C30.1188 83.3089 20.8424 74.0325 20.8424 62.4756V45.7682C20.8424 29.6323 33.8243 16.6423 49.9603 16.6423ZM29.1758 37.4756C28.7216 38.5048 29.1758 49.9756 37.5091 49.9756C42.1133 49.9756 45.8424 46.2464 45.8424 41.6423L29.1758 37.4756ZM70.8424 37.4756L54.1758 41.6423C54.1758 46.2464 57.9049 49.9756 62.5091 49.9756C70.8424 49.9756 71.2966 38.5048 70.8424 37.4756ZM29.1758 58.3089C29.1758 67.5173 37.5091 74.9756 50.0091 74.9756C62.5091 74.9756 70.8424 67.5131 70.8424 58.3089H62.5091L58.3424 66.6423L54.1758 58.3089H45.8424L41.6758 66.6423L37.5091 58.3089H29.1758Z" fill="#D65835"/>
</svg>
