<svg width="20" height="20" viewBox="0 0 20 20" fill="none" xmlns="http://www.w3.org/2000/svg">
  <path d="M4.54688 9.99585C4.55241 9.80216 4.59115 9.62508 4.66309 9.4646C4.73503 9.30412 4.8457 9.14917 4.99512 8.99976L13.3125 0.947998C13.5505 0.710042 13.8438 0.591064 14.1924 0.591064C14.4248 0.591064 14.6351 0.646403 14.8232 0.75708C15.0169 0.867757 15.1691 1.01717 15.2798 1.20532C15.396 1.39347 15.4541 1.60376 15.4541 1.83618C15.4541 2.17928 15.3241 2.48088 15.064 2.74097L7.54346 9.98755L15.064 17.2424C15.3241 17.5081 15.4541 17.8097 15.4541 18.1472C15.4541 18.3852 15.396 18.5982 15.2798 18.7864C15.1691 18.9745 15.0169 19.1239 14.8232 19.2346C14.6351 19.3508 14.4248 19.4089 14.1924 19.4089C13.8438 19.4089 13.5505 19.2872 13.3125 19.0437L4.99512 10.9919C4.84017 10.8425 4.72673 10.6876 4.65479 10.5271C4.58285 10.3611 4.54688 10.184 4.54688 9.99585Z" fill="#FFFFFF"/>
</svg>
