<svg width="20" height="20" viewBox="0 0 20 20" fill="none" xmlns="http://www.w3.org/2000/svg">
  <path d="M15.4531 10.0042C15.4476 10.1978 15.4089 10.3749 15.3369 10.5354C15.265 10.6959 15.1543 10.8508 15.0049 11.0002L6.6875 19.052C6.44954 19.29 6.15625 19.4089 5.80762 19.4089C5.5752 19.4089 5.36491 19.3536 5.17676 19.2429C4.98307 19.1322 4.83089 18.9828 4.72021 18.7947C4.604 18.6065 4.5459 18.3962 4.5459 18.1638C4.5459 17.8207 4.67594 17.5191 4.93603 17.259L12.4565 10.0125L4.93603 2.75757C4.67594 2.49194 4.5459 2.19035 4.5459 1.85278C4.5459 1.61483 4.604 1.40178 4.72021 1.21362C4.83089 1.02547 4.98307 0.876059 5.17676 0.765382C5.36491 0.649171 5.57519 0.591065 5.80762 0.591065C6.15625 0.591065 6.44954 0.71281 6.6875 0.9563L15.0049 9.00806C15.1598 9.15747 15.2733 9.31242 15.3452 9.4729C15.4172 9.63892 15.4531 9.816 15.4531 10.0042Z" fill="#007AFF"/>
</svg>
