<svg width="100" height="100" viewBox="0 0 100 100" fill="none" xmlns="http://www.w3.org/2000/svg">
  <path d="M49.9987 8.33334C27.0362 8.33334 8.33203 27.0375 8.33203 50C8.33203 72.9625 27.0362 91.6667 49.9987 91.6667C72.9612 91.6667 91.6654 72.9625 91.6654 50C91.6654 27.0375 72.9612 8.33334 49.9987 8.33334ZM49.9987 16.6667C68.4575 16.6667 83.332 31.5412 83.332 50C83.332 68.4589 68.4575 83.3333 49.9987 83.3333C31.5399 83.3333 16.6654 68.4589 16.6654 50C16.6654 31.5412 31.5399 16.6667 49.9987 16.6667ZM35.4154 41.6667C29.5737 41.6667 24.9987 45.3292 24.9987 50H45.832C45.832 45.3292 41.257 41.6667 35.4154 41.6667ZM64.582 41.6667C58.7404 41.6667 54.1654 45.3292 54.1654 50H74.9987C74.9987 45.3292 70.4237 41.6667 64.582 41.6667ZM39.4193 60.612L36.9128 68.5547C36.9128 68.5547 43.743 70.8333 50.3324 70.8333C56.9217 70.8333 63.752 68.5547 63.752 68.5547L61.2454 60.612C61.2454 60.612 54.8347 62.5 50.3324 62.5C45.83 62.5 39.4193 60.612 39.4193 60.612Z" fill="#50AABF"/>
</svg>
