<svg width="100" height="100" viewBox="0 0 100 100" fill="none" xmlns="http://www.w3.org/2000/svg">
  <path d="M49.9987 8.33334C44.7654 8.33334 39.755 10.3093 35.6758 13.8509C32.3591 12.4093 28.7001 12.1131 25.1126 12.9964C18.9251 14.5173 13.979 19.7307 12.7998 25.9766C12.1206 29.5849 12.5953 33.2057 14.0286 36.3932C10.4078 39.1682 8.33203 43.3667 8.33203 47.9167C8.33203 55.9583 14.8737 62.5 22.9154 62.5H23.3874C22.9874 59.0708 22.574 56.2601 22.2074 54.0934C19.099 53.7393 16.6654 51.1208 16.6654 47.9167C16.6654 45.9792 17.5528 44.1888 19.0986 43.0013C22.3361 40.518 23.3871 36.3214 21.6621 32.7881C20.8746 31.1714 20.645 29.348 20.9867 27.5147C21.5742 24.423 24.0316 21.8398 27.0983 21.0856C27.8025 20.9148 28.4943 20.8252 29.1735 20.8252C30.2693 20.8252 31.3305 21.0509 32.3555 21.4925C35.5596 22.8925 39.0885 22.3033 41.5677 20.0033C46.1885 15.6991 53.8007 15.6991 58.4216 20.0033C60.9049 22.3074 64.4296 22.8884 67.6338 21.4925C69.2921 20.7717 71.0576 20.6398 72.891 21.0856C75.9618 21.844 78.4193 24.4272 79.0026 27.5147C79.3484 29.348 79.1188 31.1714 78.3272 32.7881C76.6022 36.3214 77.649 40.5178 80.8906 43.0095C82.4406 44.1928 83.332 45.9792 83.332 47.9167C83.332 51.1208 80.9025 53.7393 77.79 54.0934C77.4275 56.2601 77.0061 59.0708 76.6019 62.5H77.082C85.1237 62.5 91.6654 55.9583 91.6654 47.9167C91.6654 43.3667 89.5889 39.1669 85.8223 36.4502C87.4056 33.2085 87.8809 29.5851 87.1976 25.9684C86.0184 19.7268 81.0764 14.5133 74.8848 12.9883C71.2889 12.1133 67.6436 12.4081 64.1019 13.8998C60.2436 10.3122 55.232 8.33334 49.9987 8.33334ZM45.832 41.6667V91.6667H54.1654V41.6667H45.832ZM37.3766 44.8242L29.2874 46.8425C29.2874 46.8425 33.332 62.8968 33.332 91.6667H41.6654C41.6654 62.1032 37.3766 44.8242 37.3766 44.8242ZM62.6208 44.8242C62.6208 44.8242 58.332 62.1032 58.332 91.6667H66.6654C66.6654 62.8968 70.71 46.8425 70.71 46.8425L62.6208 44.8242Z" fill="#212121"/>
</svg>
