<?xml version="1.0" standalone="no"?>
<!DOCTYPE svg PUBLIC "-//W3C//DTD SVG 20010904//EN"
 "http://www.w3.org/TR/2001/REC-SVG-20010904/DTD/svg10.dtd">
<svg version="1.0" xmlns="http://www.w3.org/2000/svg"
 width="816.000000pt" height="816.000000pt" viewBox="0 0 816.000000 816.000000"
 preserveAspectRatio="xMidYMid meet">
<metadata>
Created by potrace 1.14, written by Peter Selinger 2001-2017
</metadata>
<g transform="translate(0.000000,816.000000) scale(0.100000,-0.100000)"
fill="#000000" stroke="none">
<path d="M3977 8020 c-76 -24 -136 -68 -188 -140 -22 -29 -48 -85 -40 -85 1 0
-3 -13 -9 -30 -8 -21 -11 -155 -11 -435 0 -223 2 -412 4 -420 17 -77 53 -144
103 -190 43 -39 124 -87 124 -73 0 5 4 3 8 -3 12 -19 118 -26 180 -13 112 23
202 94 251 199 l26 55 0 445 0 445 -26 55 c-45 94 -127 165 -226 194 -49 15
-140 13 -196 -4z"/>
<path d="M1400 6966 c-74 -28 -86 -35 -133 -76 -137 -121 -162 -314 -58 -463
16 -23 157 -168 315 -322 334 -328 350 -339 486 -340 71 0 94 4 140 26 130 61
212 183 213 319 1 144 -16 168 -344 498 -156 156 -302 297 -324 312 -82 57
-213 77 -295 46z"/>
<path d="M6546 6964 c-28 -9 -68 -28 -90 -44 -23 -16 -169 -158 -326 -317
-299 -302 -323 -332 -339 -430 -9 -62 -5 -126 9 -153 6 -12 13 -30 15 -41 5
-25 41 -77 75 -109 44 -41 70 -60 70 -53 0 3 8 -1 18 -9 63 -56 233 -59 329
-7 46 26 50 30 354 333 325 325 343 351 342 491 0 77 -8 107 -39 165 -41 76
-101 132 -180 165 -56 24 -177 29 -238 9z"/>
<path d="M3885 5970 c-27 -4 -72 -10 -100 -14 -27 -3 -61 -8 -75 -11 -14 -4
-36 -8 -50 -11 -56 -11 -236 -66 -244 -75 -6 -5 -15 -9 -22 -9 -6 0 -29 -8
-50 -17 -22 -9 -42 -16 -46 -15 -5 1 -8 -2 -8 -7 0 -5 -10 -11 -23 -15 -36 -9
-227 -116 -227 -127 0 -6 -4 -8 -9 -4 -5 3 -15 0 -23 -7 -7 -7 -40 -33 -73
-57 -33 -25 -61 -48 -63 -53 -2 -4 -8 -8 -13 -8 -5 0 -17 -8 -27 -17 -10 -10
-45 -43 -78 -74 -182 -174 -310 -349 -416 -569 -72 -149 -132 -327 -153 -450
-3 -19 -8 -44 -12 -54 -3 -11 -7 -38 -9 -60 -2 -23 -7 -63 -10 -91 -14 -123
-5 -385 16 -490 6 -27 13 -66 16 -85 3 -19 8 -38 10 -41 2 -3 5 -19 8 -35 7
-38 59 -196 82 -249 10 -22 18 -42 19 -45 5 -29 115 -232 145 -267 5 -7 10
-15 10 -18 0 -5 80 -117 127 -177 27 -33 244 -249 278 -276 66 -52 213 -152
223 -152 6 0 12 -4 14 -8 4 -12 239 -125 313 -151 33 -12 67 -24 75 -28 8 -3
20 -7 25 -8 6 -2 30 -8 55 -15 58 -16 82 -21 155 -35 22 -4 51 -9 65 -11 14
-2 50 -7 80 -11 72 -9 348 -9 425 1 33 4 71 9 85 11 45 5 208 44 272 63 147
46 334 132 446 207 30 19 57 35 62 35 5 0 10 3 12 8 2 4 39 34 83 66 75 56
243 216 310 296 51 60 115 149 115 159 0 5 4 11 8 13 17 7 168 278 156 278 -4
0 -2 6 3 13 11 12 73 170 78 197 2 8 8 27 13 41 18 46 56 240 68 349 6 51 5
339 -1 380 -3 19 -7 51 -9 70 -6 48 -15 98 -26 140 -5 19 -11 49 -14 66 -21
117 -151 426 -228 536 -10 14 -18 31 -18 36 0 6 -4 12 -8 14 -5 2 -23 26 -42
53 -96 143 -243 297 -400 419 -70 55 -158 116 -166 116 -3 0 -18 8 -32 19 -42
29 -204 109 -279 137 -37 13 -75 28 -83 31 -47 19 -261 72 -310 77 -25 3 -45
6 -45 6 0 12 -390 20 -460 10z m365 -705 c25 -3 63 -11 85 -17 22 -6 47 -11
55 -12 90 -9 356 -143 462 -233 77 -66 218 -215 218 -232 0 -4 8 -15 18 -24 9
-9 28 -37 42 -64 14 -26 27 -50 30 -53 22 -20 95 -207 115 -295 25 -110 27
-125 30 -260 3 -140 -12 -262 -46 -380 -22 -74 -98 -248 -111 -253 -5 -2 -8
-8 -8 -14 0 -5 -24 -44 -54 -86 -57 -81 -150 -181 -226 -244 -25 -21 -50 -42
-57 -48 -7 -5 -16 -10 -22 -10 -5 0 -11 -4 -13 -9 -7 -21 -243 -140 -308 -156
-8 -3 -40 -11 -70 -19 -179 -49 -366 -52 -581 -11 -97 18 -374 138 -409 175
-3 3 -21 17 -40 30 -65 46 -172 147 -238 226 -109 129 -230 387 -248 528 -3
22 -10 59 -14 81 -9 41 -6 311 3 355 4 14 9 39 12 55 7 34 6 29 29 110 24 80
34 106 79 192 44 87 60 116 67 123 3 3 25 32 49 65 42 56 168 187 222 229 47
37 155 104 214 134 67 33 235 95 235 85 0 -3 7 0 15 7 8 7 15 10 15 7 0 -3 17
-1 38 4 20 5 62 12 92 15 30 4 56 7 57 8 5 4 221 -3 263 -9z"/>
<path d="M757 4403 c-4 -3 -94 -7 -200 -8 -150 -1 -201 -5 -235 -18 -51 -20
-97 -50 -132 -88 -77 -84 -95 -131 -95 -244 0 -66 5 -99 17 -124 10 -19 18
-38 18 -42 0 -11 26 -43 70 -86 37 -37 109 -78 156 -89 53 -13 825 -11 880 1
68 15 134 55 178 106 163 191 92 475 -144 567 -24 10 -92 15 -221 16 -102 2
-191 6 -197 10 -7 4 -12 3 -12 -1 0 -10 -63 -11 -71 0 -3 4 -8 4 -12 0z"/>
<path d="M6934 4390 c-115 -25 -215 -114 -257 -230 -59 -160 16 -345 171 -425
30 -16 66 -30 80 -33 49 -8 826 -8 865 0 123 27 212 110 264 248 16 41 15 141
-1 194 -20 66 -76 146 -131 185 -90 64 -88 64 -545 66 -228 1 -429 -2 -446 -5z"/>
<path d="M1910 2316 c-66 -21 -116 -64 -393 -341 -261 -261 -334 -343 -342
-383 -2 -9 -4 -17 -5 -17 -11 0 -16 -142 -7 -192 19 -109 139 -231 257 -261
30 -8 147 -8 175 -1 68 18 126 67 403 343 286 285 326 331 352 409 13 42 21
146 11 162 -3 6 -7 19 -8 29 -15 96 -135 221 -243 254 -33 10 -167 8 -200 -2z"/>
<path d="M6004 2301 c-34 -16 -76 -42 -94 -57 -72 -64 -120 -164 -124 -257 -2
-49 3 -72 40 -179 4 -10 10 -18 15 -18 5 0 9 -6 9 -13 0 -6 134 -146 298 -309
253 -253 306 -301 356 -324 239 -109 505 76 491 343 -4 70 -29 143 -65 187
-50 61 -546 562 -584 589 -64 46 -108 60 -196 63 -75 2 -92 -1 -146 -25z"/>
<path d="M3973 1452 c-124 -44 -216 -148 -237 -266 -9 -46 -9 -807 -1 -851 9
-47 51 -127 87 -165 73 -77 153 -112 259 -113 137 -1 252 73 317 203 l27 55 2
443 c2 243 -1 450 -6 460 -5 9 -19 38 -31 64 -27 56 -88 120 -139 145 -20 9
-38 17 -41 18 -3 0 -10 4 -17 8 -7 4 -47 10 -90 13 -61 4 -90 1 -130 -14z"/>
</g>
</svg>
