<svg width="50" height="50" viewBox="0 0 50 50" fill="none" xmlns="http://www.w3.org/2000/svg">
  <path d="M24.9981 12.9121C18.3497 12.9121 12.9102 18.3517 12.9102 25C12.9102 31.6484 18.3497 37.0879 24.9981 37.0879C31.6464 37.0879 37.086 31.6484 37.086 25C37.086 18.3517 31.6464 12.9121 24.9981 12.9121ZM24.9981 32.6923C20.7673 32.6923 17.3058 29.2308 17.3058 25C17.3058 20.7693 20.7673 17.3077 24.9981 17.3077C29.2288 17.3077 32.6904 20.7693 32.6904 25C32.6904 29.2308 29.2288 32.6923 24.9981 32.6923Z" fill="#FF4E50"/>
  <path opacity="0.7" d="M25.0008 8.90493C26.2108 8.90493 27.2008 7.91549 27.2008 6.70617V4.25369C27.2008 3.04437 26.2108 2.05493 25.0008 2.05493C23.7908 2.05493 22.8008 3.04437 22.8008 4.25369V6.70617C22.8008 7.97046 23.7908 8.90493 25.0008 8.90493Z" fill="#FF4E50"/>
  <path opacity="0.7" d="M45.7489 22.8022H43.2964C42.0871 22.8022 41.0977 23.7913 41.0977 25C41.0977 26.2088 42.0871 27.1979 43.2964 27.1979H45.7489C46.9582 27.1979 47.9477 26.2088 47.9477 25C47.9477 23.7913 46.9582 22.8022 45.7489 22.8022Z" fill="#FF4E50"/>
  <path opacity="0.7" d="M24.9986 41.0989C23.7898 41.0989 22.8008 42.0883 22.8008 43.2976V45.7501C22.8008 46.9594 23.7898 47.9489 24.9986 47.9489C26.2074 47.9489 27.1964 46.9594 27.1964 45.7501V43.2976C27.1964 42.0333 26.2074 41.0989 24.9986 41.0989Z" fill="#FF4E50"/>
  <path opacity="0.7" d="M8.90469 25C8.90469 23.7913 7.91525 22.8022 6.70593 22.8022H4.25345C3.04413 22.8022 2.05469 23.7913 2.05469 25C2.05469 26.2088 3.04413 27.1979 4.25345 27.1979H6.70593C7.97022 27.1979 8.90469 26.2088 8.90469 25Z" fill="#FF4E50"/>
  <path d="M37.9129 14.2858C38.4624 14.2858 39.0118 14.066 39.4514 13.6265L42.6382 10.4396C43.5173 9.56053 43.5173 8.1869 42.6382 7.30778C41.7591 6.42866 40.3854 6.42866 39.5063 7.30778L36.3195 10.4946C35.4404 11.3737 35.4404 12.7473 36.3195 13.6265C36.814 14.066 37.3635 14.2858 37.9129 14.2858Z" fill="#FF4E50"/>
  <path d="M39.4514 36.3737C38.5722 35.4946 37.1986 35.4946 36.3195 36.3737C35.4404 37.2528 35.4404 38.6264 36.3195 39.5056L39.5063 42.6924C39.9459 43.1319 40.4953 43.3517 41.0448 43.3517C41.5942 43.3517 42.1437 43.1319 42.5832 42.6924C43.4624 41.8133 43.4624 40.4396 42.5832 39.5605L39.4514 36.3737Z" fill="#FF4E50"/>
  <path d="M10.5493 36.3737L7.36247 39.5605C6.48334 40.4396 6.48334 41.8133 7.36247 42.6924C7.80203 43.1319 8.35148 43.3517 8.90093 43.3517C9.45038 43.3517 9.99983 43.1319 10.4394 42.6924L13.6262 39.5056C14.5053 38.6264 14.5053 37.2528 13.6262 36.3737C12.802 35.4946 11.3735 35.4946 10.5493 36.3737Z" fill="#FF4E50"/>
  <path d="M10.5495 13.6265C10.9342 14.066 11.5385 14.2858 12.088 14.2858C12.6374 14.2858 13.1869 14.066 13.6265 13.6265C14.5056 12.7473 14.5056 11.3737 13.6265 10.4946L10.4396 7.30778C9.56053 6.42866 8.1869 6.42866 7.30778 7.30778C6.42866 8.1869 6.42866 9.56053 7.30778 10.4396L10.5495 13.6265Z" fill="#FF4E50"/>
</svg>
