<svg width="50" height="50" viewBox="0 0 50 50" fill="none" xmlns="http://www.w3.org/2000/svg">
  <g clip-path="url(#loading)">
    <path d="M33.5474 16.451C28.8464 11.7499 21.1536 11.7499 16.4526 16.451C11.7515 21.1521 11.7515 28.8448 16.4526 33.5459C21.1536 38.247 28.8464 38.247 33.5474 33.5459C38.2485 28.8448 38.2485 21.1521 33.5474 16.451ZM19.5607 30.4377C16.5691 27.4461 16.5691 22.5508 19.5607 19.5592C22.5523 16.5676 27.4477 16.5676 30.4393 19.5592C33.4309 22.5508 33.4309 27.4461 30.4393 30.4377C27.4477 33.4293 22.5523 33.4293 19.5607 30.4377Z" fill="#FF4E50"/>
    <path opacity="0.7" d="M36.3838 13.6193C37.2394 14.4749 38.6391 14.4753 39.4942 13.6202L41.2284 11.886C42.0835 11.0309 42.0831 9.6312 41.2275 8.77561C40.3719 7.92001 38.9722 7.91961 38.1171 8.77473L36.383 10.5089C35.489 11.4029 35.5282 12.7637 36.3838 13.6193Z" fill="#FF4E50"/>
    <path opacity="0.7" d="M41.2264 38.1173L39.4923 36.3831C38.6371 35.528 37.2382 35.5277 36.3834 36.3825C35.5287 37.2372 35.529 38.6362 36.3841 39.4913L38.1183 41.2255C38.9734 42.0806 40.3724 42.0809 41.2271 41.2261C42.0818 40.3714 42.0815 38.9724 41.2264 38.1173Z" fill="#FF4E50"/>
    <path opacity="0.7" d="M13.6166 36.3825C12.7618 35.5277 11.3629 35.528 10.5077 36.3831L8.77358 38.1173C7.91846 38.9724 7.91815 40.3714 8.7729 41.2261C9.62764 42.0809 11.0266 42.0806 11.8817 41.2255L13.6159 39.4913C14.5099 38.5973 14.4713 37.2372 13.6166 36.3825Z" fill="#FF4E50"/>
    <path opacity="0.7" d="M13.6216 13.6187C14.4764 12.764 14.4761 11.365 13.621 10.5099L11.8868 8.7757C11.0317 7.92059 9.63269 7.92028 8.77795 8.77503C7.92321 9.62977 7.92351 11.0287 8.77863 11.8839L10.5128 13.618C11.4068 14.512 12.7669 14.4735 13.6216 13.6187Z" fill="#FF4E50"/>
    <path d="M41.7081 26.5544C42.0966 26.9429 42.6406 27.176 43.2622 27.176L47.769 27.176C49.0123 27.176 49.9836 26.2047 49.9836 24.9615C49.9836 23.7182 49.0123 22.7469 47.769 22.7469L43.2622 22.7469C42.0189 22.7469 41.0476 23.7182 41.0476 24.9615C41.0865 25.622 41.3196 26.1659 41.7081 26.5544Z" fill="#FF4E50"/>
    <path d="M27.1794 43.2608C27.1794 42.0175 26.2081 41.0462 24.9648 41.0462C23.7216 41.0462 22.7503 42.0175 22.7503 43.2608L22.7503 47.7676C22.7503 48.3893 22.9834 48.9332 23.3719 49.3217C23.7604 49.7102 24.3044 49.9433 24.926 49.9433C26.1693 49.9433 27.1406 48.972 27.1406 47.7288L27.1794 43.2608Z" fill="#FF4E50"/>
    <path d="M6.7417 22.824L2.23486 22.8241C0.991599 22.8241 0.0202993 23.7953 0.0202993 25.0386C0.0202993 25.6602 0.25341 26.2042 0.64193 26.5927C1.03045 26.9812 1.57438 27.2143 2.19601 27.2143L6.70284 27.2143C7.94611 27.2143 8.91741 26.243 8.91741 24.9998C8.95626 23.7953 7.94611 22.7852 6.7417 22.824Z" fill="#FF4E50"/>
    <path d="M22.8243 6.73933C22.7854 7.32211 23.0574 7.90489 23.4459 8.29341C23.8344 8.68193 24.3784 8.91504 25 8.91504C26.2433 8.91504 27.2146 7.94374 27.2146 6.70048L27.2146 2.19364C27.2146 0.95038 26.2433 -0.0209206 25 -0.0209206C23.7567 -0.0209206 22.7854 0.95038 22.7854 2.19364L22.8243 6.73933Z" fill="#FF4E50"/>
  </g>
  <defs>
    <clipPath id="loading">
      <rect width="50" height="50" fill="white"/>
    </clipPath>
  </defs>
</svg>
