<svg width="362" height="75" viewBox="0 0 362 75" fill="none" xmlns="http://www.w3.org/2000/svg">
  <rect width="362" height="75" rx="37.5" fill="white"/>
  <path d="M114.509 60L132.725 15H120.65L108.191 44.0789L99.3289 15H90.0453L80.5344 44.0789L73.8242 30.8297L67.7539 49.4531L73.918 60H85.8008L94.3977 33.9211L102.601 60H114.509Z" fill="black"/>
  <path d="M48.4352 44.5523H55.8531C57.8799 44.5808 59.9007 44.3276 61.8578 43.8L63.775 37.8961L69.1375 21.3984C68.7238 20.7472 68.2532 20.1338 67.7312 19.5656C64.9844 16.5219 60.9586 15 55.6539 15H37V60H48.4352V44.5523ZM58.2555 25.3523C59.332 26.4336 59.8695 27.8805 59.868 29.693C59.8664 31.5055 59.3977 32.9531 58.4617 34.0359C57.4242 35.2266 55.5148 35.8211 52.7336 35.8195H48.4352V23.7305H52.7523C55.3445 23.7305 57.1789 24.2711 58.2555 25.3523ZM125.324 51.9398L128.791 43.2094H138.796L134.048 29.9648L139.987 15L157 60H144.454L141.548 51.9398H125.324Z" fill="black"/>
  <path d="M266.656 29V20.5156H267.688V21.8281H267.766C268.102 20.9609 269.016 20.3906 270.062 20.3906C270.234 20.3906 270.477 20.3984 270.609 20.4062V21.4844C270.523 21.4609 270.258 21.4141 269.984 21.4219C268.68 21.4141 267.727 22.3203 267.734 23.5469V29H266.656Z" fill="black"/>
  <path d="M263.312 25.7188V20.5156H264.375V29H263.312V27.5938H263.234C262.844 28.4531 261.969 29.1094 260.719 29.1094C259.086 29.1094 257.922 28.0234 257.922 26V20.5156H259V25.9219C258.992 27.2266 259.836 28.0859 261.031 28.0781C262.148 28.0859 263.32 27.2656 263.312 25.7188Z" fill="black"/>
  <path d="M252.313 29.1719C250.086 29.1797 248.539 27.3906 248.547 24.7969C248.539 22.1875 250.086 20.3984 252.313 20.3906C254.531 20.3984 256.07 22.1875 256.063 24.7969C256.07 27.3906 254.531 29.1797 252.313 29.1719ZM249.609 24.7969C249.609 26.6562 250.563 28.2188 252.313 28.2188C254.047 28.2188 255 26.6562 255 24.7969C255 22.9297 254.047 21.3516 252.313 21.3594C250.57 21.3516 249.609 22.9375 249.609 24.7969Z" fill="black"/>
  <path d="M241.688 32.1875C241.461 32.1797 241.234 32.1719 241.094 32.1562L241.109 31.2031C241.211 31.2109 241.453 31.2188 241.625 31.2188C242.172 31.2188 242.719 31.1484 243.172 29.9062L243.469 29.0781L240.344 20.5156H241.5L243.969 27.625H244.047L246.531 20.5156H247.672L244.094 30.3125C243.625 31.5703 242.844 32.1797 241.688 32.1875Z" fill="black"/>
  <path d="M229.453 23.7344V29H228.375V20.5156H229.406V21.8594H229.5C229.906 20.9766 230.75 20.4062 232 20.4062C233.719 20.4062 234.875 21.4922 234.875 23.5156V29H233.812V23.5938C233.812 22.2266 233 21.3672 231.719 21.375C230.398 21.3672 229.445 22.2656 229.453 23.7344Z" fill="black"/>
  <path d="M222.766 29.1719C220.539 29.1797 218.992 27.3906 219 24.7969C218.992 22.1875 220.539 20.3984 222.766 20.3906C224.984 20.3984 226.523 22.1875 226.516 24.7969C226.523 27.3906 224.984 29.1797 222.766 29.1719ZM220.063 24.7969C220.063 26.6562 221.016 28.2188 222.766 28.2188C224.5 28.2188 225.453 26.6562 225.453 24.7969C225.453 22.9297 224.5 21.3516 222.766 21.3594C221.023 21.3516 220.063 22.9375 220.063 24.7969Z" fill="black"/>
  <path d="M213.656 20.5156V21.4219H211.875V26.7344C211.867 27.8047 212.469 28.1016 213.109 28.1094L213.812 28.0781V29.0781C213.641 29.0938 213.375 29.125 213.016 29.125C211.914 29.125 210.797 28.4062 210.797 27V21.4219H209.531V20.5156H210.797V18.4844H211.875V20.5156H213.656Z" fill="black"/>
  <path d="M206.875 29V20.5156H207.938V29H206.875ZM206.641 18.3281C206.641 17.9141 206.992 17.5859 207.422 17.5781C207.844 17.5859 208.195 17.9141 208.203 18.3281C208.195 18.7422 207.844 19.0703 207.422 19.0625C206.992 19.0703 206.641 18.7422 206.641 18.3281Z" fill="black"/>
  <path d="M197.688 29.1719C195.289 29.1797 193.789 27.3906 193.797 24.8125C193.789 22.2344 195.32 20.3984 197.531 20.3906C199.375 20.3984 201.148 21.6953 201.156 24.5781V25.0781H194.859C194.906 27 196 28.2188 197.688 28.2188C198.852 28.2188 199.539 27.6172 199.844 27.0781H200.984C200.602 28.25 199.398 29.1797 197.688 29.1719ZM194.867 24.1562H200.063C200.063 22.5703 199.031 21.3516 197.547 21.3594C196.016 21.3516 194.961 22.6328 194.867 24.1562Z" fill="black"/>
  <path d="M191.172 22.625C190.984 21.8281 190.359 21.3281 189.312 21.3281C188.18 21.3203 187.383 21.9453 187.391 22.7656C187.383 23.4141 187.875 23.8672 188.906 24.125L190.203 24.4375C191.633 24.7891 192.352 25.5469 192.344 26.6875C192.352 28.1328 191.172 29.1797 189.172 29.1719C187.359 29.1797 186.25 28.3438 186.031 26.8438H187.141C187.312 27.7656 188 28.2344 189.156 28.2344C190.43 28.2344 191.258 27.6562 191.266 26.75C191.258 26.0781 190.797 25.6094 189.797 25.375L188.5 25.0625C187.07 24.7266 186.32 23.9375 186.312 22.8125C186.32 21.4062 187.531 20.3906 189.312 20.3906C190.977 20.3984 192.039 21.3047 192.234 22.625H191.172Z" fill="black"/>
  <path d="M182.859 17.6875H183.969V25.1719C183.969 27.4922 182.227 29.1953 179.656 29.1875C177.086 29.1953 175.344 27.4844 175.344 25.1719V17.6875H176.453V25.0938C176.453 26.8594 177.719 28.1484 179.656 28.1562C181.602 28.1484 182.852 26.8594 182.859 25.0938V17.6875Z" fill="black"/>
  <path d="M316.383 57V44.2734H319.734V46.4766H319.875C320.332 44.918 321.516 44.0859 322.945 44.0859C323.297 44.0859 323.742 44.1328 324.047 44.2031V47.2969C323.719 47.1914 323.051 47.1094 322.57 47.1094C321 47.1094 319.84 48.1992 319.852 49.7578V57H316.383Z" fill="black"/>
  <path d="M308.367 57.2578C304.465 57.2461 302.074 54.7266 302.086 50.6953C302.074 46.7695 304.5 44.1094 308.227 44.1094C311.566 44.1094 314.203 46.2188 314.203 50.5547V51.5391H305.508C305.508 53.4609 306.645 54.6445 308.438 54.6562C309.621 54.6445 310.465 54.1289 310.805 53.3672H314.109C313.617 55.7227 311.508 57.2461 308.367 57.2578ZM305.508 49.3594H310.922C310.91 47.8125 309.844 46.6992 308.297 46.7109C306.703 46.6992 305.578 47.8945 305.508 49.3594Z" fill="black"/>
  <path d="M296.93 48.0469C296.777 47.1562 296.004 46.582 294.844 46.5703C293.719 46.582 292.863 47.1094 292.875 47.8828C292.863 48.457 293.309 48.9023 294.516 49.1484L296.789 49.6172C299.262 50.1328 300.457 51.2344 300.469 53.0625C300.457 55.5703 298.207 57.2461 294.82 57.2578C291.387 57.2461 289.371 55.7109 289.078 53.2266H292.57C292.734 54.2227 293.543 54.7383 294.82 54.75C296.086 54.7383 296.93 54.2344 296.93 53.4141C296.93 52.7578 296.391 52.3477 295.195 52.1016L293.086 51.6797C290.66 51.1992 289.418 49.957 289.43 48.0703C289.418 45.6328 291.516 44.1094 294.797 44.1094C298.008 44.1094 300 45.6328 300.188 48.0469H296.93Z" fill="black"/>
  <path d="M272.508 57L269.039 44.2734H272.555L274.547 52.875H274.664L276.75 44.2734H280.195L282.305 52.8281H282.422L284.391 44.2734H287.906L284.414 57H280.758L278.555 48.9141H278.391L276.188 57H272.508Z" fill="black"/>
  <path d="M261.891 57.2578C258.047 57.2461 255.645 54.6094 255.656 50.6719C255.645 46.7461 258.047 44.1094 261.891 44.1094C265.746 44.1094 268.137 46.7461 268.148 50.6719C268.137 54.6094 265.746 57.2461 261.891 57.2578ZM259.172 50.6719C259.172 52.8984 260.098 54.5508 261.914 54.5625C263.684 54.5508 264.621 52.8984 264.609 50.6719C264.621 48.4336 263.684 46.7578 261.914 46.7578C260.098 46.7578 259.172 48.4336 259.172 50.6719Z" fill="black"/>
  <path d="M247.219 57V44.2734H250.57V46.4766H250.711C251.168 44.918 252.352 44.0859 253.781 44.0859C254.133 44.0859 254.578 44.1328 254.883 44.2031V47.2969C254.555 47.1914 253.887 47.1094 253.406 47.1094C251.836 47.1094 250.676 48.1992 250.688 49.7578V57H247.219Z" fill="black"/>
  <path d="M232.008 57V40.0312H238.758C242.496 40.0312 244.395 41.8359 244.383 44.3906C244.395 46.3828 243.082 47.6367 241.336 48.0234V48.1875C243.246 48.2812 245.051 49.8047 245.062 52.3125C245.051 55.0078 243.035 57 239.203 57H232.008ZM235.523 54.0938H238.5C240.539 54.1055 241.418 53.2617 241.406 51.9844C241.418 50.5547 240.328 49.5469 238.594 49.5469H235.523V54.0938ZM235.523 47.1328H238.242C239.719 47.1445 240.832 46.3125 240.82 44.9531C240.832 43.7227 239.918 42.8906 238.312 42.8906H235.523V47.1328Z" fill="black"/>
  <path d="M211.805 57V40.0312H215.273V46.4062H215.367C215.848 45.375 216.855 44.1094 219 44.1094C221.812 44.1094 224.168 46.2891 224.18 50.6484C224.168 54.9023 221.906 57.2109 219 57.2109C216.926 57.2109 215.871 56.0156 215.367 54.9609H215.227V57H211.805ZM215.203 50.625C215.191 52.9219 216.188 54.4336 217.898 54.4453C219.668 54.4336 220.629 52.875 220.617 50.625C220.629 48.4102 219.691 46.875 217.898 46.875C216.176 46.875 215.191 48.3398 215.203 50.625Z" fill="black"/>
  <path d="M203.719 57.2578C199.816 57.2461 197.426 54.7266 197.438 50.6953C197.426 46.7695 199.852 44.1094 203.578 44.1094C206.918 44.1094 209.555 46.2188 209.555 50.5547V51.5391H200.859C200.859 53.4609 201.996 54.6445 203.789 54.6562C204.973 54.6445 205.816 54.1289 206.156 53.3672H209.461C208.969 55.7227 206.859 57.2461 203.719 57.2578ZM200.859 49.3594H206.273C206.262 47.8125 205.195 46.6992 203.648 46.7109C202.055 46.6992 200.93 47.8945 200.859 49.3594Z" fill="black"/>
  <path d="M179.227 57L174.375 40.0312H178.219L181.078 51.8906H181.219L184.336 40.0312H187.641L190.758 51.9141H190.898L193.758 40.0312H197.602L192.75 57H189.305L186.07 45.7969H185.93L182.672 57H179.227Z" fill="black"/>
</svg>
