<svg width="103" height="37" viewBox="0 0 103 37" fill="none" xmlns="http://www.w3.org/2000/svg">
  <rect width="103" height="37" rx="18.5" fill="white"/>
  <path d="M88.6953 14V9.75781H89.2109V10.4141H89.25C89.418 9.98047 89.875 9.69531 90.3984 9.69531C90.4844 9.69531 90.6055 9.69922 90.6719 9.70312V10.2422C90.6289 10.2305 90.4961 10.207 90.3594 10.2109C89.707 10.207 89.2305 10.6602 89.2344 11.2734V14H88.6953Z" fill="black"/>
  <path d="M87.0234 12.3594V9.75781H87.5547V14H87.0234V13.2969H86.9844C86.7891 13.7266 86.3516 14.0547 85.7266 14.0547C84.9102 14.0547 84.3281 13.5117 84.3281 12.5V9.75781H84.8672V12.4609C84.8633 13.1133 85.2852 13.543 85.8828 13.5391C86.4414 13.543 87.0273 13.1328 87.0234 12.3594Z" fill="black"/>
  <path d="M81.5235 14.0859C80.4102 14.0898 79.6367 13.1953 79.6406 11.8984C79.6367 10.5938 80.4102 9.69922 81.5235 9.69531C82.6328 9.69922 83.4024 10.5938 83.3985 11.8984C83.4024 13.1953 82.6328 14.0898 81.5235 14.0859ZM80.1719 11.8984C80.1719 12.8281 80.6485 13.6094 81.5235 13.6094C82.3906 13.6094 82.8672 12.8281 82.8672 11.8984C82.8672 10.9648 82.3906 10.1758 81.5235 10.1797C80.6524 10.1758 80.1719 10.9688 80.1719 11.8984Z" fill="black"/>
  <path d="M76.2109 15.5938C76.0977 15.5898 75.9844 15.5859 75.9141 15.5781L75.9219 15.1016C75.9727 15.1055 76.0938 15.1094 76.1797 15.1094C76.4531 15.1094 76.7266 15.0742 76.9531 14.4531L77.1016 14.0391L75.5391 9.75781H76.1172L77.3516 13.3125H77.3906L78.6328 9.75781H79.2031L77.4141 14.6562C77.1797 15.2852 76.7891 15.5898 76.2109 15.5938Z" fill="black"/>
  <path d="M70.0938 11.3672V14H69.5547V9.75781H70.0703V10.4297H70.1172C70.3203 9.98828 70.7422 9.70312 71.3672 9.70312C72.2266 9.70312 72.8047 10.2461 72.8047 11.2578V14H72.2734V11.2969C72.2734 10.6133 71.8672 10.1836 71.2266 10.1875C70.5664 10.1836 70.0898 10.6328 70.0938 11.3672Z" fill="black"/>
  <path d="M66.75 14.0859C65.6367 14.0898 64.8633 13.1953 64.8672 11.8984C64.8633 10.5938 65.6367 9.69922 66.75 9.69531C67.8594 9.69922 68.6289 10.5938 68.625 11.8984C68.6289 13.1953 67.8594 14.0898 66.75 14.0859ZM65.3985 11.8984C65.3985 12.8281 65.875 13.6094 66.75 13.6094C67.6172 13.6094 68.0938 12.8281 68.0938 11.8984C68.0938 10.9648 67.6172 10.1758 66.75 10.1797C65.8789 10.1758 65.3985 10.9688 65.3985 11.8984Z" fill="black"/>
  <path d="M62.1953 9.75781V10.2109H61.3047V12.8672C61.3008 13.4023 61.6016 13.5508 61.9219 13.5547L62.2734 13.5391V14.0391C62.1875 14.0469 62.0547 14.0625 61.875 14.0625C61.3242 14.0625 60.7656 13.7031 60.7656 13V10.2109H60.1328V9.75781H60.7656V8.74219H61.3047V9.75781H62.1953Z" fill="black"/>
  <path d="M58.8047 14V9.75781H59.3359V14H58.8047ZM58.6875 8.66406C58.6875 8.45703 58.8633 8.29297 59.0781 8.28906C59.2891 8.29297 59.4648 8.45703 59.4688 8.66406C59.4648 8.87109 59.2891 9.03516 59.0781 9.03125C58.8633 9.03516 58.6875 8.87109 58.6875 8.66406Z" fill="black"/>
  <path d="M54.211 14.0859C53.0117 14.0898 52.2617 13.1953 52.2656 11.9062C52.2617 10.6172 53.0274 9.69922 54.1328 9.69531C55.0547 9.69922 55.9414 10.3477 55.9453 11.7891V12.0391H52.7969C52.8203 13 53.3672 13.6094 54.211 13.6094C54.793 13.6094 55.1367 13.3086 55.2891 13.0391H55.8594C55.668 13.625 55.0664 14.0898 54.211 14.0859ZM52.8008 11.5781H55.3985C55.3985 10.7852 54.8828 10.1758 54.1406 10.1797C53.375 10.1758 52.8477 10.8164 52.8008 11.5781Z" fill="black"/>
  <path d="M50.9531 10.8125C50.8594 10.4141 50.5469 10.1641 50.0234 10.1641C49.457 10.1602 49.0586 10.4727 49.0625 10.8828C49.0586 11.207 49.3047 11.4336 49.8203 11.5625L50.4688 11.7188C51.1836 11.8945 51.543 12.2734 51.5391 12.8438C51.543 13.5664 50.9531 14.0898 49.9531 14.0859C49.0469 14.0898 48.4922 13.6719 48.3828 12.9219H48.9375C49.0234 13.3828 49.3672 13.6172 49.9453 13.6172C50.582 13.6172 50.9961 13.3281 51 12.875C50.9961 12.5391 50.7656 12.3047 50.2656 12.1875L49.6172 12.0312C48.9023 11.8633 48.5273 11.4688 48.5234 10.9062C48.5273 10.2031 49.1328 9.69531 50.0234 9.69531C50.8555 9.69922 51.3867 10.1523 51.4844 10.8125H50.9531Z" fill="black"/>
  <path d="M46.7969 8.34375H47.3516V12.0859C47.3516 13.2461 46.4805 14.0977 45.1953 14.0938C43.9102 14.0977 43.0391 13.2422 43.0391 12.0859V8.34375H43.5938V12.0469C43.5938 12.9297 44.2266 13.5742 45.1953 13.5781C46.168 13.5742 46.793 12.9297 46.7969 12.0469V8.34375Z" fill="black"/>
  <path d="M24.2513 6.41602C17.5777 6.41602 12.168 11.8257 12.168 18.4994C12.168 25.173 17.5777 30.5827 24.2513 30.5827C30.9249 30.5827 36.3346 25.173 36.3346 18.4994C36.3346 11.8257 30.9249 6.41602 24.2513 6.41602ZM30.1915 11.8936C30.632 11.8425 31.011 12.3031 30.8027 12.7503L27.2698 20.3449C27.0293 20.8621 26.614 21.2774 26.0968 21.5178L18.5023 25.0508C17.9912 25.2888 17.4618 24.7595 17.6999 24.2484L21.2328 16.6538C21.4733 16.1379 21.8886 15.7213 22.4058 15.4809L30.0003 11.9479C30.0642 11.9182 30.1286 11.9009 30.1915 11.8936ZM24.2513 17.1707C23.5142 17.1707 22.9226 17.7623 22.9226 18.4994C22.9226 19.2364 23.5142 19.828 24.2513 19.828C24.9884 19.828 25.58 19.2364 25.58 18.4994C25.58 17.7623 24.9884 17.1707 24.2513 17.1707Z" fill="black"/>
  <path d="M72.4961 28.5V22.1367H73.75V28.5H72.4961ZM72.332 20.4141C72.3379 20.0039 72.6953 19.6758 73.1289 19.6758C73.5566 19.6758 73.9141 20.0039 73.9141 20.4141C73.9141 20.8242 73.5566 21.1582 73.1289 21.1523C72.6953 21.1582 72.3379 20.8242 72.332 20.4141Z" fill="black"/>
  <path d="M68.1367 28.5002V22.1369H69.3438V23.1447H69.4141C69.6484 22.465 70.2871 22.0373 71.0312 22.0432C71.1836 22.0373 71.4297 22.0549 71.5586 22.0666V23.2619C71.4531 23.2385 71.1602 23.1857 70.9023 23.1916C70.0352 23.1857 69.3906 23.7892 69.3906 24.6213V28.5002H68.1367Z" fill="black"/>
  <path d="M61.3282 26.707C61.3223 25.2539 62.5586 24.8789 63.7071 24.7969C64.1289 24.7734 65.084 24.7207 65.377 24.709L65.3711 24.1992C65.377 23.4785 64.9317 23.0625 64.0821 23.0625C63.3438 23.0625 62.8985 23.4023 62.7696 23.8711H61.5274C61.6387 22.8164 62.6231 22.0547 64.1289 22.0547C65.1426 22.0547 66.6192 22.4238 66.625 24.2695V28.5H65.4063V27.6328H65.3594C65.1133 28.1074 64.5274 28.6406 63.4727 28.6406C62.2657 28.6406 61.3223 27.9492 61.3282 26.707ZM62.5469 26.7188C62.5469 27.3281 63.0508 27.6387 63.7539 27.6445C64.7735 27.6387 65.3828 26.959 65.3828 26.2031L65.377 25.623C65.0899 25.6406 64.1817 25.7051 63.8828 25.7227C63.0625 25.7812 62.5469 26.0918 62.5469 26.7188Z" fill="black"/>
  <path d="M60.6836 22.1367V23.1328H59.3125V28.5H58.0586V23.1328H57.0742V22.1367H58.0586V21.3984C58.0645 20.2617 58.791 19.6172 59.957 19.6172C60.2559 19.6172 60.5664 19.6523 60.8125 19.6992V20.7422C60.5781 20.707 60.3965 20.6953 60.2852 20.6953C59.623 20.6953 59.3125 20.9648 59.3125 21.5859V22.1367H60.6836Z" fill="black"/>
  <path d="M50.8399 26.707C50.834 25.2539 52.0703 24.8789 53.2188 24.7969C53.6407 24.7734 54.5957 24.7207 54.8887 24.709L54.8828 24.1992C54.8887 23.4785 54.4434 23.0625 53.5938 23.0625C52.8555 23.0625 52.4102 23.4023 52.2813 23.8711H51.0391C51.1504 22.8164 52.1348 22.0547 53.6407 22.0547C54.6543 22.0547 56.1309 22.4238 56.1367 24.2695V28.5H54.918V27.6328H54.8711C54.625 28.1074 54.0391 28.6406 52.9844 28.6406C51.7774 28.6406 50.834 27.9492 50.8399 26.707ZM52.0586 26.7188C52.0586 27.3281 52.5625 27.6387 53.2657 27.6445C54.2852 27.6387 54.8946 26.959 54.8946 26.2031L54.8887 25.623C54.6016 25.6406 53.6934 25.7051 53.3946 25.7227C52.5742 25.7812 52.0586 26.0918 52.0586 26.7188Z" fill="black"/>
  <path d="M48.4844 22.2539C48.4023 21.4629 47.7109 21.0117 46.7383 21.0117C45.7012 21.0117 45.0449 21.5449 45.0391 22.2656C45.0391 23.0684 45.9121 23.3848 46.5859 23.543L47.4062 23.7656C48.4902 24.0293 49.8496 24.6211 49.8555 26.1562C49.8496 27.5918 48.707 28.6406 46.7031 28.6406C44.8047 28.6406 43.6094 27.6914 43.5273 26.1445H44.8164C44.8926 27.0703 45.7129 27.5098 46.7031 27.5156C47.7871 27.5098 48.5723 26.9648 48.5781 26.1328C48.5723 25.3945 47.8691 25.0957 46.9727 24.8555L45.9648 24.5859C44.5996 24.2109 43.7559 23.5195 43.75 22.3359C43.7559 20.8711 45.0566 19.8984 46.7734 19.8984C48.4961 19.8984 49.6973 20.8828 49.7383 22.2539H48.4844Z" fill="black"/>
</svg>
